<?xml version="1.0" encoding="UTF-8"?>
<svg width="219px" height="70px" viewBox="0 0 219 70" version="1.1" xmlns="http://www.w3.org/2000/svg" xmlns:xlink="http://www.w3.org/1999/xlink">
    <!-- Generator: Sketch 47.1 (45422) - http://www.bohemiancoding.com/sketch -->
    <title>logo-label-black</title>
    <desc>Created with Sketch.</desc>
    <defs></defs>
    <g id="Page-1" stroke="none" stroke-width="1" fill="none" fill-rule="evenodd">
        <g id="logo-label-black" fill="#000000">
            <g id="logo" transform="translate(36.000000, 22.000000)">
                <path d="M0.5484,7.5543 L1.8874,7.5543 C2.1904,7.5543 2.4364,7.3083 2.4364,7.0053 L2.4364,1.9813 C2.4364,1.8353 2.4944,1.6963 2.5974,1.5933 L3.7374,0.4533 C3.8404,0.3513 3.9804,0.2933 4.1254,0.2933 L6.2334,0.2933 C6.5354,0.2933 6.7814,0.5383 6.7814,0.8423 L6.7814,7.0053 C6.7814,7.3083 7.0274,7.5543 7.3304,7.5543 L9.2374,7.5543 C9.5404,7.5543 9.7864,7.7993 9.7864,8.1033 L9.7864,10.9003 C9.7864,11.2023 9.5404,11.4483 9.2374,11.4483 L7.3304,11.4483 C7.0274,11.4483 6.7814,11.6943 6.7814,11.9963 L6.7814,21.6083 C6.7814,21.9103 7.0274,22.1573 7.3304,22.1573 L7.8984,22.1573 C8.2004,22.1573 8.4464,22.4023 8.4464,22.7053 L8.4464,25.8263 C8.4464,26.1293 8.2004,26.3753 7.8984,26.3753 L4.5314,26.3753 C4.3864,26.3753 4.2464,26.3183 4.1444,26.2143 L2.5974,24.6703 C2.4944,24.5673 2.4364,24.4273 2.4364,24.2823 L2.4364,11.9963 C2.4364,11.6943 2.1904,11.4483 1.8874,11.4483 L0.5484,11.4483 C0.2454,11.4483 0.0004,11.2023 0.0004,10.9003 L0.0004,8.1033 C0.0004,7.7993 0.2454,7.5543 0.5484,7.5543" id="Fill-128"></path>
                <path d="M136.3419,15.7662 L143.1729,15.7662 C143.5569,15.7662 143.8179,15.3842 143.6879,15.0232 C143.1389,13.4972 141.6019,12.4252 139.7899,12.4252 C137.9829,12.4252 136.4759,13.4642 135.8369,15.0002 C135.6859,15.3642 135.9479,15.7662 136.3419,15.7662 M144.1959,20.9602 L146.4769,22.2032 C146.7589,22.3572 146.8539,22.7222 146.6729,22.9892 C145.2919,25.0232 142.9519,26.7792 139.8269,26.7792 C134.9399,26.7792 131.4479,22.6672 131.4479,17.8952 C131.4479,13.0862 134.9399,8.9382 139.7899,8.9382 C144.5499,8.9382 147.5409,12.8622 147.7899,17.2052 C147.7989,17.3642 147.7359,17.5182 147.6229,17.6282 L146.4909,18.7312 C146.3889,18.8302 146.2509,18.8862 146.1079,18.8862 L136.0559,18.8862 C135.7059,18.8862 135.4429,19.2112 135.5179,19.5532 C135.9919,21.7112 137.7879,23.1082 139.8269,23.1082 C141.2179,23.1082 142.6099,22.3022 143.4899,21.1212 C143.6549,20.9002 143.9529,20.8282 144.1959,20.9602" id="Fill-125"></path>
                <path d="M24.5972,17.859 C24.5972,15.105 22.5392,12.756 19.7102,12.756 C16.8432,12.756 14.7852,15.105 14.7852,17.859 C14.7852,20.612 16.8802,22.999 19.7102,22.999 C22.5032,22.999 24.5972,20.612 24.5972,17.859 M28.6022,17.859 C28.6022,22.887 24.5232,26.779 19.7102,26.779 C14.8592,26.779 10.7802,22.887 10.7802,17.859 C10.7802,12.83 14.8592,8.975 19.7102,8.975 C24.5232,8.975 28.6022,12.83 28.6022,17.859" id="Fill-113"></path>
                <path d="M30.8956,18.9596 L30.8956,9.8916 C30.8956,9.5876 31.1416,9.3426 31.4446,9.3426 L34.3526,9.3426 C34.6556,9.3426 34.9006,9.5876 34.9006,9.8916 L34.9006,18.9596 C34.9006,21.6766 36.4446,22.9986 38.2816,22.9986 C40.1196,22.9986 41.6626,21.6766 41.6626,18.9596 L41.6626,9.8916 C41.6626,9.5876 41.9086,9.3426 42.2116,9.3426 L45.0836,9.3426 C45.3856,9.3426 45.6316,9.5876 45.6316,9.8916 L45.6316,18.9596 C45.6316,23.9896 42.2136,26.7786 38.2816,26.7786 C34.3496,26.7786 30.8956,23.9896 30.8956,18.9596" id="Fill-115"></path>
                <path d="M60.8262,21.69 L63.0062,23.396 C63.2652,23.598 63.2922,23.984 63.0582,24.215 C61.5182,25.738 59.4812,26.779 57.2002,26.779 C52.4592,26.779 48.3062,22.851 48.3062,17.859 C48.3062,12.866 52.3862,8.938 57.2002,8.938 C59.3242,8.938 61.5422,9.743 62.8012,11.152 C62.9912,11.364 62.9732,11.69 62.7732,11.892 L60.7982,13.892 C60.5862,14.106 60.2452,14.108 60.0272,13.901 C59.3482,13.254 58.3632,12.719 57.2002,12.719 C54.3702,12.719 52.2752,15.142 52.2752,17.859 C52.2752,20.539 54.3702,22.999 57.2002,22.999 C58.4102,22.999 59.3452,22.474 60.0992,21.736 C60.2982,21.542 60.6072,21.519 60.8262,21.69" id="Fill-117"></path>
                <path d="M80.4966,26.3756 L77.5886,26.3756 C77.2856,26.3756 77.0396,26.1296 77.0396,25.8266 L77.0396,16.1706 C77.0396,13.9316 75.7536,12.8656 73.9526,12.8656 C72.0046,12.8656 70.5356,14.0406 70.5356,15.5466 L70.5356,25.8266 C70.5356,26.1296 70.2896,26.3756 69.9866,26.3756 L67.1516,26.3756 C66.8496,26.3756 66.6036,26.1296 66.6036,25.8266 L66.6036,1.8426 C66.6036,1.6966 66.6616,1.5576 66.7646,1.4546 L67.7656,0.4536 C67.8686,0.3516 68.0076,0.2936 68.1536,0.2936 L69.9866,0.2936 C70.2896,0.2936 70.5356,0.5386 70.5356,0.8426 L70.5356,9.7006 C70.5356,10.1356 71.0186,10.4006 71.3806,10.1606 C72.3736,9.4996 73.5286,9.0856 74.9446,9.0856 C78.0316,9.0856 81.0446,11.0676 81.0446,16.1706 L81.0446,25.8266 C81.0446,26.1296 80.7996,26.3756 80.4966,26.3756" id="Fill-119"></path>
                <path d="M85.3799,1.4557 L86.3489,0.4597 C86.4519,0.3527 86.5939,0.2937 86.7419,0.2937 L88.6809,0.2937 C88.9839,0.2937 89.2299,0.5387 89.2299,0.8427 L89.2299,22.0097 C89.2299,22.3117 89.4759,22.5577 89.7779,22.5577 L90.1879,22.5577 C90.4909,22.5577 90.7369,22.8037 90.7369,23.1057 L90.7369,25.8267 C90.7369,26.1297 90.4909,26.3757 90.1879,26.3757 L87.1089,26.3757 C86.9609,26.3757 86.8199,26.3157 86.7159,26.2107 L85.3809,24.8467 C85.2809,24.7437 85.2249,24.6057 85.2249,24.4627 L85.2249,1.8377 C85.2249,1.6947 85.2799,1.5577 85.3799,1.4557" id="Fill-121"></path>
                <path d="M128.4073,26.3756 L125.5363,26.3756 C125.2333,26.3756 124.9883,26.1296 124.9883,25.8266 L124.9883,16.0966 C124.9883,13.8566 123.6643,12.7926 121.8643,12.7926 C119.9163,12.7926 118.4463,14.0046 118.4463,15.5466 L118.4463,25.8266 C118.4463,26.1296 118.2003,26.3756 117.8983,26.3756 L115.0633,26.3756 C114.7603,26.3756 114.5143,26.1296 114.5143,25.8266 L114.5143,13.4146 C114.5143,13.1116 114.2683,12.8656 113.9663,12.8656 L113.5933,12.8656 C113.2903,12.8656 113.0443,12.6206 113.0443,12.3176 L113.0443,9.8916 C113.0443,9.5876 113.2903,9.3426 113.5933,9.3426 L115.9453,9.3426 C116.0883,9.3426 116.2253,9.3976 116.3283,9.4986 L117.4473,10.5906 C117.6363,10.7756 117.9323,10.7996 118.1473,10.6446 C119.5803,9.6046 121.2653,9.0126 122.8563,9.0126 C125.9433,9.0126 128.9563,10.9946 128.9563,16.0966 L128.9563,25.8266 C128.9563,26.1296 128.7103,26.3756 128.4073,26.3756" id="Fill-123"></path>
                <path d="M105.1212,21.4781 C99.7942,25.4461 93.8242,19.4751 97.7922,14.1481 C97.8262,14.1031 97.8682,14.0611 97.9132,14.0281 C103.2392,10.0611 109.2082,16.0301 105.2422,21.3571 C105.2082,21.4021 105.1662,21.4441 105.1212,21.4781 L105.1212,21.4781 Z M110.7002,22.6861 C110.3972,22.6861 110.1522,22.4411 110.1522,22.1371 L110.1522,20.5751 L110.1522,15.0691 L110.1522,12.8661 L110.1612,9.8921 C110.1622,9.5881 109.9162,9.3421 109.6132,9.3421 L108.4242,9.3421 L107.9012,9.3421 C107.7412,9.3421 107.5892,9.4121 107.4852,9.5331 L106.6522,10.5011 C106.5662,10.6011 106.5192,10.7281 106.5192,10.8591 L106.5192,11.2481 L106.2202,10.9331 C105.5982,10.3191 104.3152,9.3181 102.3762,9.0241 C102.0802,8.9801 101.7702,8.9521 101.4452,8.9441 C101.3832,8.9431 101.3232,8.9381 101.2592,8.9381 C96.3722,8.9381 92.5142,12.9641 92.5142,17.7531 C92.5142,17.7711 92.5172,17.7881 92.5172,17.8051 C92.5172,17.8241 92.5142,17.8401 92.5142,17.8591 C92.5142,22.7051 96.3722,26.7791 101.2592,26.7791 C103.8312,26.7791 105.4852,25.4941 106.2202,24.7601 L106.2222,24.7571 C106.4352,24.5321 106.7922,24.5271 107.0112,24.7471 L108.2642,26.0061 C108.3672,26.1101 108.5072,26.1681 108.6532,26.1681 L111.1092,26.1681 C111.4132,26.1681 111.6582,25.9231 111.6582,25.6201 L111.6582,23.2351 C111.6582,22.9321 111.4132,22.6861 111.1092,22.6861 L110.7002,22.6861 Z" id="Fill-130"></path>
            </g>
        </g>
    </g>
</svg>